<svg width="100" height="100" viewBox="0 0 100 100" fill="none" xmlns="http://www.w3.org/2000/svg">
<path d="M50 100C22.385 100 0 77.615 0 50C0 22.385 22.385 0 50 0C77.615 0 100 22.385 100 50C100 77.615 77.615 100 50 100ZM50 90C60.6087 90 70.7828 85.7857 78.2843 78.2843C85.7857 70.7828 90 60.6087 90 50C90 39.3913 85.7857 29.2172 78.2843 21.7157C70.7828 14.2143 60.6087 10 50 10C39.3913 10 29.2172 14.2143 21.7157 21.7157C14.2143 29.2172 10 39.3913 10 50C10 60.6087 14.2143 70.7828 21.7157 78.2843C29.2172 85.7857 39.3913 90 50 90V90ZM32.5 60H60C60.663 60 61.2989 59.7366 61.7678 59.2678C62.2366 58.7989 62.5 58.163 62.5 57.5C62.5 56.837 62.2366 56.2011 61.7678 55.7322C61.2989 55.2634 60.663 55 60 55H40C36.6848 55 33.5054 53.683 31.1612 51.3388C28.817 48.9946 27.5 45.8152 27.5 42.5C27.5 39.1848 28.817 36.0054 31.1612 33.6612C33.5054 31.317 36.6848 30 40 30H45V20H55V30H67.5V40H40C39.337 40 38.7011 40.2634 38.2322 40.7322C37.7634 41.2011 37.5 41.837 37.5 42.5C37.5 43.163 37.7634 43.7989 38.2322 44.2678C38.7011 44.7366 39.337 45 40 45H60C63.3152 45 66.4946 46.317 68.8388 48.6612C71.183 51.0054 72.5 54.1848 72.5 57.5C72.5 60.8152 71.183 63.9946 68.8388 66.3388C66.4946 68.683 63.3152 70 60 70H55V80H45V70H32.5V60Z" fill="#878787"/>
</svg>
